Coordinates
version=1
nRows=14
nColumns=63
inDegrees=yes

Units are S.I. units (second, meters, Newtons, ...)
If the header above contains a line with 'inDegrees', this indicates whether rotational values are in degrees (yes) or radians (no).

endheader
time	pelvis_tilt	pelvis_list	pelvis_rotation	pelvis_tx	pelvis_ty	pelvis_tz	hip_flexion_r	hip_adduction_r	hip_rotation_r	knee_angle_r	knee_angle_r_beta	ankle_angle_r	subtalar_angle_r	mtp_angle_r	hip_flexion_l	hip_adduction_l	hip_rotation_l	knee_angle_l	knee_angle_l_beta	ankle_angle_l	subtalar_angle_l	mtp_angle_l	L5_S1_Flex_Ext	L5_S1_Lat_Bending	L5_S1_axial_rotation	L4_L5_Flex_Ext	L4_L5_Lat_Bending	L4_L5_axial_rotation	L3_L4_Flex_Ext	L3_L4_Lat_Bending	L3_L4_axial_rotation	L2_L3_Flex_Ext	L2_L3_Lat_Bending	L2_L3_axial_rotation	L1_L2_Flex_Ext	L1_L2_Lat_Bending	L1_L2_axial_rotation	L1_T12_Flex_Ext	L1_T12_Lat_Bending	L1_T12_axial_rotation	Abs_r3	Abs_r2	Abs_r1	Abs_t1	Abs_t2	neck_flexion	neck_bending	neck_rotation	arm_flex_r	arm_add_r	arm_rot_r	elbow_flex_r	pro_sup_r	wrist_flex_r	wrist_dev_r	arm_flex_l	arm_add_l	arm_rot_l	elbow_flex_l	pro_sup_l	wrist_flex_l	wrist_dev_l
0.783333	-4.745007	-3.822567	91.870375	0.204016	0.840960	0.538825	11.646224	-5.468606	0.938182	22.827080	0.398408	51.543134	3.167486	0.000000	11.810677	6.945994	18.456730	15.092427	0.263413	46.382800	-14.867221	0.000000	0.132139	-0.335583	-0.650046	0.245394	-0.446325	-0.690674	0.217090	-0.815936	-0.690674	0.151021	-0.815936	-0.568790	0.122704	-0.684321	-0.528162	0.075504	-0.519818	-0.487535	0.943852	-3.796182	-3.615362	0.000000	0.000000	28.126926	6.506320	12.496346	9.902523	-20.882894	68.370941	29.489023	59.414862	-7.538848	-7.231454	10.488913	-23.166597	52.410202	23.547942	78.671693	-13.933190	-5.563745
0.800000	-4.561282	-2.876183	92.007524	0.204814	0.843082	0.537556	10.019265	-5.128607	1.205136	21.891875	0.382085	51.278377	3.073049	0.000000	10.250458	6.621775	18.795943	14.214126	0.248083	46.076430	-14.867849	0.000000	0.023972	-0.327758	-0.719138	0.044518	-0.435918	-0.764084	0.039383	-0.796910	-0.764084	0.027397	-0.796910	-0.629246	0.022260	-0.668363	-0.584300	0.013698	-0.507697	-0.539354	0.171229	-3.707660	-3.999630	0.000000	0.000000	27.859123	6.431969	12.145668	8.264578	-22.631805	64.685442	29.785297	60.841453	-7.003493	-6.999901	9.666708	-24.490995	55.817962	21.550663	71.229320	-13.035121	-6.198785
0.816667	-4.426714	-1.971815	92.012221	0.205828	0.845259	0.536197	8.460297	-4.803310	1.650313	20.970568	0.366005	50.993062	2.989279	0.000000	8.651336	6.309998	19.010141	13.200583	0.230394	45.687545	-14.941122	0.000000	-0.076573	-0.323935	-0.755312	-0.142204	-0.430834	-0.802519	-0.125802	-0.787616	-0.802519	-0.087515	-0.787616	-0.660898	-0.071106	-0.660569	-0.613691	-0.043754	-0.501776	-0.566484	-0.546953	-3.664420	-4.200820	0.000000	0.000000	27.543665	6.258862	11.783382	6.728865	-24.028643	64.103707	29.126863	59.863236	-6.353725	-6.773863	8.876829	-25.757991	59.820824	19.525316	62.482982	-11.695848	-6.895544
0.833333	-4.332682	-1.170430	91.918667	0.206950	0.847406	0.534804	7.043285	-4.513012	2.171558	20.084698	0.350544	50.696779	2.981554	0.000000	7.128754	6.022195	19.107448	12.139336	0.211871	45.252643	-15.066670	0.000000	-0.163575	-0.320383	-0.761635	-0.303775	-0.426110	-0.809238	-0.268737	-0.778980	-0.809238	-0.186950	-0.778980	-0.666431	-0.151896	-0.653325	-0.618829	-0.093467	-0.496273	-0.571227	-1.168399	-3.624238	-4.235988	0.000000	0.000000	27.206004	6.023054	11.597266	5.312839	-25.094375	66.533483	27.446403	56.409663	-5.442122	-6.709655	8.150638	-26.982958	64.254719	17.496299	53.505273	-10.033893	-7.478734
0.850000	-4.286476	-0.488025	91.697617	0.208193	0.849526	0.533407	5.801285	-4.266121	2.775296	19.247366	0.335930	50.377416	3.037186	0.000000	5.699597	5.765408	19.072754	11.013190	0.192216	44.757710	-15.236181	0.000000	-0.235529	-0.316283	-0.736175	-0.437401	-0.420657	-0.782186	-0.386951	-0.769012	-0.782186	-0.269186	-0.769012	-0.644153	-0.218712	-0.644965	-0.598142	-0.134581	-0.489923	-0.552131	-1.682362	-3.577862	-4.094386	0.000000	0.000000	26.867585	5.668843	11.612058	4.095130	-25.831194	71.900118	24.808870	50.451432	-4.379786	-6.883033	7.456920	-28.197245	68.670354	15.478006	44.775486	-7.869080	-7.764263
0.866667	-4.172499	0.034370	91.414367	0.209146	0.851467	0.532173	4.773150	-4.004271	3.312837	18.461916	0.322221	50.030130	3.198106	0.000000	4.536811	5.485805	18.956139	10.062001	0.175615	44.324017	-15.423593	0.000000	-0.289769	-0.292602	-0.686776	-0.538130	-0.389161	-0.729699	-0.476062	-0.711432	-0.729699	-0.331177	-0.711432	-0.600929	-0.269080	-0.596674	-0.558005	-0.165574	-0.453240	-0.515082	-2.069791	-3.309972	-3.819641	0.000000	0.000000	26.547616	5.166912	11.995106	2.990935	-27.283182	73.018594	23.375604	46.963130	-3.707868	-6.377890	6.941587	-29.363315	73.335299	13.410448	36.199319	-5.508270	-7.846964
0.883333	-4.088623	0.416485	91.049866	0.210081	0.853345	0.531064	3.945825	-3.788960	3.902312	17.733085	0.309501	49.649007	3.330003	0.000000	3.578219	5.251136	18.705356	9.187029	0.160344	43.892583	-15.577562	0.000000	-0.327076	-0.266668	-0.613608	-0.607413	-0.354668	-0.651959	-0.537353	-0.648376	-0.651959	-0.373815	-0.648376	-0.536907	-0.303723	-0.543789	-0.498557	-0.186891	-0.413068	-0.460206	-2.336271	-3.016598	-3.412704	0.000000	0.000000	26.252536	4.571694	12.577878	2.136639	-28.787781	74.520514	21.643279	42.889907	-2.970506	-6.032156	6.581937	-30.647109	77.982406	11.339702	27.994573	-3.137285	-7.971820
0.900000	-4.030901	0.658560	90.645597	0.210960	0.855158	0.530119	3.314515	-3.628463	4.475423	17.064365	0.297829	49.246348	3.439640	0.000000	2.841844	5.069829	18.375443	8.415544	0.146879	43.470702	-15.695050	0.000000	-0.347305	-0.241732	-0.523375	-0.644979	-0.321503	-0.556085	-0.570587	-0.587746	-0.556085	-0.396934	-0.587746	-0.457953	-0.322507	-0.492939	-0.425242	-0.198450	-0.374442	-0.392531	-2.480762	-2.734517	-2.910852	0.000000	0.000000	25.972477	3.960837	13.230800	1.565655	-30.386173	76.088899	19.659790	38.302303	-1.857382	-6.029440	6.390873	-32.137222	82.293336	9.322477	20.339436	-0.930544	-8.420110
0.916667	-3.995298	0.777337	90.251039	0.211794	0.856929	0.529373	2.850061	-3.513545	5.037890	16.449576	0.287099	48.809436	3.436372	0.000000	2.334671	4.942053	17.972895	7.790765	0.135975	43.075462	-15.742650	0.000000	-0.352095	-0.221931	-0.430520	-0.653876	-0.295169	-0.457428	-0.578457	-0.539604	-0.457428	-0.402410	-0.539604	-0.376705	-0.326956	-0.452562	-0.349798	-0.201187	-0.343771	-0.322890	-2.514980	-2.510530	-2.394425	0.000000	0.000000	25.669045	3.427940	13.848361	1.341970	-32.074588	77.372845	17.472594	33.240327	-0.086233	-6.640537	6.297415	-33.939429	85.796914	7.406857	13.416124	1.217060	-9.241567
0.933333	-3.976956	0.783422	89.903544	0.212584	0.858630	0.528868	2.541852	-3.432107	5.596191	15.899792	0.277504	48.336495	3.260215	0.000000	2.066694	4.868618	17.535397	7.357290	0.128409	42.716319	-15.742258	0.000000	-0.343123	-0.209546	-0.347069	-0.637214	-0.278696	-0.368761	-0.563717	-0.509490	-0.368761	-0.392155	-0.509490	-0.303686	-0.318624	-0.427306	-0.281994	-0.196060	-0.324586	-0.260302	-2.450893	-2.370423	-1.930295	0.000000	0.000000	25.305318	3.054405	14.393874	1.602645	-33.800681	78.678734	15.143112	27.494195	1.440402	-7.806903	6.169018	-36.117528	87.954804	5.669893	7.520155	3.242794	-10.351514
0.950000	-3.978382	0.697655	89.623055	0.213331	0.860207	0.528558	2.363308	-3.377422	6.155894	15.416658	0.269071	47.837192	2.898238	0.000000	2.015198	4.843130	17.051358	7.128367	0.124413	42.410643	-15.678152	0.000000	-0.324424	-0.206411	-0.270616	-0.602487	-0.274527	-0.287530	-0.532996	-0.501868	-0.287530	-0.370784	-0.501868	-0.236789	-0.301260	-0.420913	-0.219876	-0.185376	-0.319731	-0.202962	-2.317325	-2.334962	-1.505087	0.000000	0.000000	24.884066	2.836862	14.775118	2.348127	-35.570861	80.244475	12.752047	21.405222	1.954472	-8.789763	5.978354	-38.696801	88.725634	4.139149	2.818669	4.681557	-11.673823
0.966667	-3.985954	0.511151	89.417293	0.214013	0.861566	0.528323	2.323785	-3.327151	6.742180	15.015756	0.262074	47.322306	2.343774	0.000000	2.167593	4.846655	16.551858	7.090991	0.123761	42.153748	-15.601238	0.000000	-0.293343	-0.212601	-0.202240	-0.544767	-0.282759	-0.214880	-0.481933	-0.516917	-0.214880	-0.335262	-0.516917	-0.176960	-0.272398	-0.433535	-0.164320	-0.167616	-0.329319	-0.151680	-2.095319	-2.404982	-1.124797	0.000000	0.000000	24.393380	2.782447	14.940817	3.570638	-37.377069	81.904536	10.386591	15.288381	1.256404	-9.377105	5.441096	-41.654177	87.778213	2.886506	-0.432311	4.891552	-13.057306
0.983333	-3.966300	0.273999	89.285641	0.214585	0.862750	0.528112	2.358640	-3.244125	7.322563	14.673440	0.256100	46.786584	1.655271	0.000000	2.450089	4.839447	16.055247	7.225124	0.126102	41.924201	-15.553805	0.000000	-0.258588	-0.224910	-0.102603	-0.480224	-0.299130	-0.109016	-0.424835	-0.546846	-0.109016	-0.295541	-0.546846	-0.089778	-0.240125	-0.458637	-0.083365	-0.147757	-0.348386	-0.076953	-1.847071	-2.544227	-0.570649	0.000000	0.000000	23.817637	2.848130	14.632295	4.991483	-39.350936	82.927432	8.150672	9.888271	-0.922672	-9.676269	5.546258	-45.075197	85.782731	1.970231	-1.996136	3.417360	-14.313311
1.000000	-3.917043	0.021797	89.251686	0.215088	0.863766	0.527824	2.407356	-3.121652	7.884587	14.365966	0.250733	46.232499	0.838583	0.000000	2.808936	4.806935	15.552157	7.520892	0.131264	41.734897	-15.493865	0.000000	-0.223812	-0.242222	-0.012201	-0.415642	-0.322156	-0.012964	-0.367701	-0.588939	-0.012964	-0.255795	-0.588939	-0.010676	-0.207832	-0.493939	-0.009913	-0.127886	-0.375202	-0.009151	-1.598668	-2.740066	-0.067859	0.000000	0.000000	23.140743	3.017630	14.099182	6.968237	-41.276483	84.252098	6.079756	5.147231	-4.782534	-9.277367	5.144386	-48.825048	81.577080	1.414924	-1.756157	0.328343	-15.367926
